<mxfile host="app.diagrams.net" modified="2023-03-28T07:10:49.345Z" agent="5.0 (Windows NT 10.0; Win64; x64) AppleWebKit/537.36 (KHTML, like Gecko) Chrome/111.0.0.0 Safari/537.36" etag="vv1JrcGJ7T1zDxtJgMKZ" version="21.0.6" type="gitlab">
  <diagram name="Page-1" id="_I6xJbvTDYSmVf_SgBtb">
    <mxGraphModel dx="1450" dy="991" grid="0" gridSize="10" guides="1" tooltips="1" connect="1" arrows="1" fold="1" page="0" pageScale="1" pageWidth="827" pageHeight="1169" math="0" shadow="0">
      <root>
        <mxCell id="0" />
        <mxCell id="1" parent="0" />
        <mxCell id="jIrMB8R4aPp0NDSmydVk-1" value="" style="rounded=0;whiteSpace=wrap;html=1;fontSize=16;" vertex="1" parent="1">
          <mxGeometry x="-282" y="-52" width="1017" height="448" as="geometry" />
        </mxCell>
        <mxCell id="jIrMB8R4aPp0NDSmydVk-2" value="All News" style="rounded=1;whiteSpace=wrap;html=1;fontSize=16;" vertex="1" parent="1">
          <mxGeometry x="-262" y="-40" width="72" height="38" as="geometry" />
        </mxCell>
        <mxCell id="jIrMB8R4aPp0NDSmydVk-4" value="Logo" style="rounded=1;whiteSpace=wrap;html=1;fontSize=16;" vertex="1" parent="1">
          <mxGeometry x="148" y="-40" width="72" height="38" as="geometry" />
        </mxCell>
        <mxCell id="jIrMB8R4aPp0NDSmydVk-5" value="Log In" style="rounded=1;whiteSpace=wrap;html=1;fontSize=16;" vertex="1" parent="1">
          <mxGeometry x="543" y="-40" width="72" height="38" as="geometry" />
        </mxCell>
        <mxCell id="jIrMB8R4aPp0NDSmydVk-6" value="Sign Up" style="rounded=1;whiteSpace=wrap;html=1;fontSize=16;" vertex="1" parent="1">
          <mxGeometry x="634" y="-40" width="72" height="38" as="geometry" />
        </mxCell>
        <mxCell id="jIrMB8R4aPp0NDSmydVk-8" value="" style="endArrow=none;html=1;rounded=0;fontSize=12;startSize=8;endSize=8;curved=1;" edge="1" parent="1">
          <mxGeometry width="50" height="50" relative="1" as="geometry">
            <mxPoint x="-281" y="15" as="sourcePoint" />
            <mxPoint x="736" y="15" as="targetPoint" />
          </mxGeometry>
        </mxCell>
        <mxCell id="jIrMB8R4aPp0NDSmydVk-9" value="News" style="rounded=1;whiteSpace=wrap;html=1;fontSize=16;" vertex="1" parent="1">
          <mxGeometry x="-157" y="176" width="136" height="38" as="geometry" />
        </mxCell>
        <mxCell id="jIrMB8R4aPp0NDSmydVk-12" value="News" style="rounded=1;whiteSpace=wrap;html=1;fontSize=16;" vertex="1" parent="1">
          <mxGeometry x="191" y="176" width="136" height="38" as="geometry" />
        </mxCell>
        <mxCell id="jIrMB8R4aPp0NDSmydVk-14" value="" style="rounded=0;whiteSpace=wrap;html=1;fontSize=16;" vertex="1" parent="1">
          <mxGeometry x="457" y="56" width="236" height="225" as="geometry" />
        </mxCell>
        <mxCell id="jIrMB8R4aPp0NDSmydVk-15" value="News" style="rounded=1;whiteSpace=wrap;html=1;fontSize=16;" vertex="1" parent="1">
          <mxGeometry x="543" y="114" width="136" height="38" as="geometry" />
        </mxCell>
        <mxCell id="jIrMB8R4aPp0NDSmydVk-18" value="" style="endArrow=none;html=1;rounded=0;fontSize=12;startSize=8;endSize=8;curved=1;" edge="1" parent="1">
          <mxGeometry width="50" height="50" relative="1" as="geometry">
            <mxPoint x="-282" y="322" as="sourcePoint" />
            <mxPoint x="735" y="322" as="targetPoint" />
          </mxGeometry>
        </mxCell>
        <mxCell id="jIrMB8R4aPp0NDSmydVk-19" value="" style="rounded=0;whiteSpace=wrap;html=1;fontSize=16;" vertex="1" parent="1">
          <mxGeometry x="-243" y="56" width="236" height="225" as="geometry" />
        </mxCell>
        <mxCell id="jIrMB8R4aPp0NDSmydVk-20" value="Details" style="rounded=1;whiteSpace=wrap;html=1;fontSize=16;" vertex="1" parent="1">
          <mxGeometry x="-232" y="224" width="136" height="38" as="geometry" />
        </mxCell>
        <mxCell id="jIrMB8R4aPp0NDSmydVk-21" value="News" style="rounded=1;whiteSpace=wrap;html=1;fontSize=16;" vertex="1" parent="1">
          <mxGeometry x="-157" y="114" width="136" height="38" as="geometry" />
        </mxCell>
        <mxCell id="jIrMB8R4aPp0NDSmydVk-22" value="" style="rounded=0;whiteSpace=wrap;html=1;fontSize=16;" vertex="1" parent="1">
          <mxGeometry x="105" y="56" width="236" height="225" as="geometry" />
        </mxCell>
        <mxCell id="jIrMB8R4aPp0NDSmydVk-23" value="News" style="rounded=1;whiteSpace=wrap;html=1;fontSize=16;" vertex="1" parent="1">
          <mxGeometry x="191" y="114" width="136" height="38" as="geometry" />
        </mxCell>
        <mxCell id="jIrMB8R4aPp0NDSmydVk-24" value="Details" style="rounded=1;whiteSpace=wrap;html=1;fontSize=16;" vertex="1" parent="1">
          <mxGeometry x="116" y="224" width="136" height="38" as="geometry" />
        </mxCell>
        <mxCell id="jIrMB8R4aPp0NDSmydVk-25" value="Details" style="rounded=1;whiteSpace=wrap;html=1;fontSize=16;" vertex="1" parent="1">
          <mxGeometry x="468" y="224" width="136" height="38" as="geometry" />
        </mxCell>
        <mxCell id="jIrMB8R4aPp0NDSmydVk-26" value="Logo" style="rounded=1;whiteSpace=wrap;html=1;fontSize=16;" vertex="1" parent="1">
          <mxGeometry x="-268" y="333" width="72" height="38" as="geometry" />
        </mxCell>
        <mxCell id="jIrMB8R4aPp0NDSmydVk-27" value="&lt;font style=&quot;font-size: 12px;&quot;&gt;Agile Software Management System&lt;/font&gt;" style="text;html=1;strokeColor=none;fillColor=none;align=center;verticalAlign=middle;whiteSpace=wrap;rounded=0;fontSize=16;" vertex="1" parent="1">
          <mxGeometry x="-276" y="372" width="212" height="24" as="geometry" />
        </mxCell>
        <mxCell id="jIrMB8R4aPp0NDSmydVk-28" value="&lt;font style=&quot;font-size: 12px;&quot;&gt;E-Pharmacist autumn semester 2023&amp;nbsp;&lt;/font&gt;" style="text;html=1;strokeColor=none;fillColor=none;align=center;verticalAlign=middle;whiteSpace=wrap;rounded=0;fontSize=16;" vertex="1" parent="1">
          <mxGeometry x="500" y="366" width="220" height="24" as="geometry" />
        </mxCell>
      </root>
    </mxGraphModel>
  </diagram>
</mxfile>
